<svg width="80" height="80" viewBox="0 0 80 80" fill="none" xmlns="http://www.w3.org/2000/svg">
<path d="M68.125 18.1875V52.5C68.125 54.375 66.8125 55.9375 65.125 55.9375H14.875C13.1875 55.9375 11.875 54.375 11.875 52.5V18.1875C11.875 16.3125 13.1875 14.75 14.875 14.75H65.125C66.8125 14.75 68.125 16.3125 68.125 18.1875Z" fill="#71DDF9"/>
<path d="M11.875 19.375H68.125V49.4375H11.875V19.375Z" fill="#FFFCEE"/>
<path d="M54.1946 34.625L46.8821 31C46.3196 30.75 45.6946 30.9375 45.4446 31.5C45.1946 32.0625 45.3821 32.6875 45.9446 32.9375L51.2571 35.625L45.8821 38.25C45.3196 38.5 45.1321 39.1875 45.3821 39.6875C45.5696 40.0625 45.9446 40.3125 46.3821 40.3125C46.5696 40.3125 46.6946 40.25 46.8821 40.1875L54.1946 36.5625C54.5696 36.375 54.8196 36 54.8196 35.5625C54.8196 35.125 54.5696 34.8125 54.1946 34.625Z" fill="#01014C"/>
<path d="M34.6289 31.5C34.3789 30.9375 33.6914 30.75 33.1914 31L25.8789 34.625C25.5039 34.8125 25.2539 35.1875 25.2539 35.625C25.2539 36.0625 25.5039 36.4375 25.8789 36.625L33.1289 40.25C33.3164 40.3125 33.4414 40.375 33.6289 40.375C34.0039 40.375 34.4414 40.125 34.6289 39.75C34.8789 39.1875 34.6914 38.5625 34.1289 38.3125L28.7539 35.625L34.1289 33C34.6914 32.6875 34.8789 32.0625 34.6289 31.5Z" fill="#01014C"/>
<path d="M43.134 28.375C42.5715 28.125 41.9465 28.375 41.6965 28.9375L36.259 41.8125C36.009 42.375 36.259 43 36.8215 43.25C36.9465 43.3125 37.134 43.3125 37.259 43.3125C37.6965 43.3125 38.0715 43.0625 38.259 42.625L43.759 29.8125C43.9465 29.25 43.6965 28.5625 43.134 28.375Z" fill="#01014C"/>
<path d="M46.25 65.25H33.75L34.5625 55.9375H45.4375L46.25 65.25Z" fill="#2568EF"/>
<path d="M51.4414 66.3125H28.5664C27.9414 66.3125 27.4414 65.8125 27.4414 65.1875C27.4414 64.5625 27.9414 64.0625 28.5664 64.0625H51.5039C52.1289 64.0625 52.6289 64.5625 52.6289 65.1875C52.6289 65.8125 52.0664 66.3125 51.4414 66.3125Z" fill="#71DDF9"/>
<path d="M65.123 13.6875H52.1856C51.5606 13.6875 51.0605 14.1875 51.0605 14.8125C51.0605 15.4375 51.5606 15.9375 52.1856 15.9375H65.123C66.1855 15.9375 66.998 17 66.998 18.3125V18.375H12.998V18.3125C12.998 17 13.873 15.9375 14.873 15.9375H38.4356C39.0606 15.9375 39.5605 15.4375 39.5605 14.8125C39.5605 14.1875 39.0606 13.6875 38.4356 13.6875H14.873C12.623 13.6875 10.8105 15.75 10.8105 18.25V52.5C10.8105 55 12.623 57.0625 14.873 57.0625H33.3731L32.7481 64.1875H28.5605C27.9355 64.1875 27.4356 64.6875 27.4356 65.3125C27.4356 65.9375 27.9355 66.4375 28.5605 66.4375H51.4981C52.1231 66.4375 52.623 65.9375 52.623 65.3125C52.623 64.6875 52.1231 64.1875 51.4981 64.1875H47.3106L46.6856 57.0625H65.1856C67.4356 57.0625 69.2481 55 69.2481 52.5V18.1875C69.2481 15.6875 67.373 13.6875 65.123 13.6875ZM67.0606 20.5V48.375H12.998V20.5H67.0606ZM45.0606 64.125H34.9356L35.5606 57H44.4356L45.0606 64.125ZM65.123 54.8125H45.4355H34.5605H14.873C13.8105 54.8125 12.998 53.75 12.998 52.4375V50.4375H67.0606V52.5C67.0606 53.75 66.1855 54.8125 65.123 54.8125Z" fill="#01014C"/>
<path d="M44.8066 15.875H45.8691C46.4941 15.875 46.9941 15.375 46.9941 14.75C46.9941 14.125 46.4941 13.625 45.8691 13.625H44.8066C44.1816 13.625 43.6816 14.125 43.6816 14.75C43.6816 15.375 44.2441 15.875 44.8066 15.875Z" fill="#01014C"/>
</svg>
