<svg width="60" height="64" viewBox="0 0 60 64" fill="none" xmlns="http://www.w3.org/2000/svg">
<g clip-path="url(#clip0)">
<path d="M1.88368 36.993C4.07825 44.9933 10.404 61.3135 21.0933 59.8486C31.8143 58.3792 27.6275 43.633 37.4419 41.6118C41.7622 40.7221 44.6908 48.698 49.0207 48.4498C54.5974 48.1302 57.4359 42.242 58.9943 37.2918C62.2986 26.7958 57.3503 8.99784 45.7686 5.91534C35.6619 3.22547 34.4797 16.3972 25.6918 12.5713C20.7525 10.421 21.246 3.99934 15.2303 2.70359C-2.9687 -1.21628 -1.03651 26.3473 1.88368 36.993Z" fill="url(#paint0_linear)"/>
<path d="M49.0234 49.655C48.0999 49.655 47.3486 48.8537 47.3486 47.8685C47.3486 46.8834 48.0999 46.082 49.0234 46.082C49.9468 46.082 50.6981 46.8834 50.6981 47.8685C50.6981 48.8537 49.9468 49.655 49.0234 49.655ZM49.0234 47.3322C48.7461 47.3322 48.5205 47.5728 48.5205 47.8687C48.5205 48.1645 48.7461 48.4052 49.0234 48.4052C49.3006 48.4052 49.5262 48.1645 49.5262 47.8687C49.5262 47.5728 49.3006 47.3322 49.0234 47.3322Z" fill="#6583FE"/>
<path d="M9.7168 23.0513C9.39324 23.0513 9.13086 22.7714 9.13086 22.4263C9.13086 22.0126 8.81551 21.6763 8.42773 21.6763C8.10418 21.6763 7.8418 21.3964 7.8418 21.0513C7.8418 20.7061 8.10418 20.4263 8.42773 20.4263C8.81551 20.4263 9.13086 20.0899 9.13086 19.6763C9.13086 19.3311 9.39324 19.0513 9.7168 19.0513C10.0404 19.0513 10.3027 19.3311 10.3027 19.6763C10.3027 20.0899 10.6181 20.4263 11.0059 20.4263C11.3294 20.4263 11.5918 20.7061 11.5918 21.0513C11.5918 21.3964 11.3294 21.6763 11.0059 21.6763C10.6181 21.6763 10.3027 22.0126 10.3027 22.4263C10.3027 22.7714 10.0404 23.0513 9.7168 23.0513Z" fill="#01ECA5"/>
<path d="M50.7012 55.3118C50.3775 55.3118 50.1152 55.0319 50.1152 54.6868C50.1152 54.2731 49.7999 53.9368 49.4121 53.9368C49.0884 53.9368 48.8262 53.6569 48.8262 53.3118C48.8262 52.9666 49.0884 52.6868 49.4121 52.6868C49.7999 52.6868 50.1152 52.3504 50.1152 51.9368C50.1152 51.5916 50.3775 51.3118 50.7012 51.3118C51.0248 51.3118 51.2871 51.5916 51.2871 51.9368C51.2871 52.3504 51.6025 52.6868 51.9902 52.6868C52.3139 52.6868 52.5762 52.9666 52.5762 53.3118C52.5762 53.6569 52.3139 53.9368 51.9902 53.9368C51.6025 53.9368 51.2871 54.2731 51.2871 54.6868C51.2871 55.0319 51.0248 55.3118 50.7012 55.3118Z" fill="#01ECA5"/>
<path d="M51.9902 18.8279C51.6666 18.8279 51.4043 18.548 51.4043 18.2029C51.4043 17.7893 51.0889 17.4529 50.7012 17.4529C50.3775 17.4529 50.1152 17.173 50.1152 16.8279C50.1152 16.4828 50.3775 16.2029 50.7012 16.2029C51.0889 16.2029 51.4043 15.8665 51.4043 15.4529C51.4043 15.1078 51.6666 14.8279 51.9902 14.8279C52.3139 14.8279 52.5762 15.1078 52.5762 15.4529C52.5762 15.8665 52.8915 16.2029 53.2793 16.2029C53.603 16.2029 53.8652 16.4828 53.8652 16.8279C53.8652 17.173 53.603 17.4529 53.2793 17.4529C52.8915 17.4529 52.5762 17.7893 52.5762 18.2029C52.5762 18.548 52.3139 18.8279 51.9902 18.8279Z" fill="#FF5BA8"/>
<path d="M8.51074 29.2134C8.18719 29.2134 7.9248 28.9335 7.9248 28.5884C7.9248 28.1748 7.60945 27.8384 7.22168 27.8384C6.89812 27.8384 6.63574 27.5585 6.63574 27.2134C6.63574 26.8683 6.89812 26.5884 7.22168 26.5884C7.60945 26.5884 7.9248 26.252 7.9248 25.8384C7.9248 25.4933 8.18719 25.2134 8.51074 25.2134C8.8343 25.2134 9.09668 25.4933 9.09668 25.8384C9.09668 26.252 9.41203 26.5884 9.7998 26.5884C10.1234 26.5884 10.3857 26.8683 10.3857 27.2134C10.3857 27.5585 10.1234 27.8384 9.7998 27.8384C9.41203 27.8384 9.09668 28.1748 9.09668 28.5884C9.09668 28.9335 8.83441 29.2134 8.51074 29.2134Z" fill="#FF5BA8"/>
<path opacity="0.1" d="M41.1872 61.7096H19.1016C17.1599 61.7096 15.5859 60.0308 15.5859 57.9596V10.3748C15.5859 8.30363 17.1599 6.62476 19.1016 6.62476H41.1872C43.1289 6.62476 44.7028 8.30363 44.7028 10.3748V57.9595C44.7028 60.0306 43.1289 61.7096 41.1872 61.7096Z" fill="#2626BC"/>
<path d="M41.1872 58.7096H19.1016C17.1599 58.7096 15.5859 57.0308 15.5859 54.9596V7.37476C15.5859 5.30363 17.1599 3.62476 19.1016 3.62476H41.1872C43.1289 3.62476 44.7028 5.30363 44.7028 7.37476V54.9595C44.7028 57.0306 43.1289 58.7096 41.1872 58.7096Z" fill="#6583FE"/>
<path d="M15.5859 8.98853H44.7023V53.346H15.5859V8.98853Z" fill="#2D58E0"/>
<path d="M28.1789 25.2738H22.209C21.5618 25.2738 21.0371 24.7142 21.0371 24.0238V18.1475C21.0371 17.4571 21.5618 16.8975 22.209 16.8975H28.1789C28.8261 16.8975 29.3507 17.4571 29.3507 18.1475V24.0238C29.3507 24.7142 28.8261 25.2738 28.1789 25.2738Z" fill="#1F50C9"/>
<path d="M38.13 25.2387H32.1602C31.5129 25.2387 30.9883 24.6791 30.9883 23.9887V18.1123C30.9883 17.4219 31.5129 16.8623 32.1602 16.8623H38.13C38.7773 16.8623 39.3019 17.4219 39.3019 18.1123V23.9887C39.3019 24.6791 38.7773 25.2387 38.13 25.2387Z" fill="#1F50C9"/>
<path d="M44.6689 16.8623V25.2386H42.1436C41.4967 25.2386 40.9717 24.6786 40.9717 23.9886V18.1123C40.9717 17.4223 41.4967 16.8623 42.1436 16.8623H44.6689Z" fill="#1F50C9"/>
<path d="M36.4537 11.667H23.835C23.5114 11.667 23.249 11.9469 23.249 12.292C23.249 12.6371 23.5114 12.917 23.835 12.917H36.4537C36.7773 12.917 37.0396 12.6371 37.0396 12.292C37.0396 11.9469 36.7774 11.667 36.4537 11.667Z" fill="white"/>
<path d="M28.1789 23.9599H22.209C21.5618 23.9599 21.0371 23.4002 21.0371 22.7099V16.8335C21.0371 16.1431 21.5618 15.5835 22.209 15.5835H28.1789C28.8261 15.5835 29.3507 16.1431 29.3507 16.8335V22.7099C29.3507 23.4002 28.8261 23.9599 28.1789 23.9599Z" fill="#FF7EB8"/>
<path d="M26.9333 21.3479H24.5098C24.1862 21.3479 23.9238 21.6278 23.9238 21.9729C23.9238 22.318 24.1862 22.5979 24.5098 22.5979H26.9333C27.2569 22.5979 27.5193 22.318 27.5193 21.9729C27.5193 21.6278 27.2569 21.3479 26.9333 21.3479Z" fill="white"/>
<path d="M26.9333 19.3066H26.2676C25.944 19.3066 25.6816 19.5865 25.6816 19.9316C25.6816 20.2768 25.944 20.5566 26.2676 20.5566H26.9333C27.2569 20.5566 27.5193 20.2768 27.5193 19.9316C27.5193 19.5865 27.2569 19.3066 26.9333 19.3066Z" fill="white"/>
<path d="M38.13 23.9248H32.1602C31.5129 23.9248 30.9883 23.3652 30.9883 22.6748V16.7983C30.9883 16.108 31.5129 15.5483 32.1602 15.5483H38.13C38.7773 15.5483 39.3019 16.108 39.3019 16.7983V22.6747C39.3019 23.3651 38.7773 23.9248 38.13 23.9248Z" fill="#02FFB3"/>
<path d="M36.8845 21.3127H34.4609C34.1374 21.3127 33.875 21.5926 33.875 21.9377C33.875 22.2829 34.1374 22.5627 34.4609 22.5627H36.8845C37.208 22.5627 37.4704 22.2829 37.4704 21.9377C37.4704 21.5926 37.208 21.3127 36.8845 21.3127Z" fill="white"/>
<path d="M36.8845 19.2715H36.2187C35.8952 19.2715 35.6328 19.5514 35.6328 19.8965C35.6328 20.2416 35.8952 20.5215 36.2187 20.5215H36.8845C37.208 20.5215 37.4704 20.2416 37.4704 19.8965C37.4704 19.5514 37.208 19.2715 36.8845 19.2715Z" fill="white"/>
<path d="M44.6699 15.5486V23.9248H42.1445C41.4977 23.9248 40.9727 23.3648 40.9727 22.6748V16.7986C40.9727 16.1086 41.4977 15.5486 42.1445 15.5486H44.6699Z" fill="#9FB0FE"/>
<path d="M15.5859 53.3459V30.2534C15.5859 28.5284 16.8973 27.1284 18.5156 27.1284H41.7727C43.391 27.1284 44.7023 28.5284 44.7023 30.2534V53.3459H15.5859Z" fill="white"/>
<path d="M41.1872 59.3346H19.1016C16.84 59.3346 15 57.372 15 54.9596V7.375C15 4.96263 16.84 3 19.1016 3H41.1872C43.4488 3 45.2887 4.96263 45.2887 7.375V54.9598C45.2887 57.372 43.4488 59.3346 41.1872 59.3346ZM19.1016 4.25C17.4861 4.25 16.1719 5.65188 16.1719 7.375V54.9598C16.1719 56.6829 17.4861 58.0848 19.1016 58.0848H41.1872C42.8026 58.0848 44.1169 56.6829 44.1169 54.9598V7.375C44.1169 5.65188 42.8026 4.25 41.1872 4.25H19.1016Z" fill="#2626BC"/>
<path d="M32.1933 7.04614H28.0957C27.7721 7.04614 27.5098 6.76627 27.5098 6.42114C27.5098 6.07602 27.7721 5.79614 28.0957 5.79614H32.1933C32.5168 5.79614 32.7792 6.07602 32.7792 6.42114C32.7792 6.76627 32.5168 7.04614 32.1933 7.04614Z" fill="#B7C5FF"/>
<path d="M34.927 7.04615C35.2507 7.04615 35.5132 6.76622 35.5132 6.4209C35.5132 6.07559 35.2507 5.79565 34.927 5.79565C34.6033 5.79565 34.3408 6.07559 34.3408 6.4209C34.3408 6.76622 34.6033 7.04615 34.927 7.04615Z" fill="#B7C5FF"/>
<path d="M27.6364 31.1672H25.2129C24.8893 31.1672 24.627 31.4471 24.627 31.7922C24.627 32.1374 24.8893 32.4172 25.2129 32.4172H27.6364C27.96 32.4172 28.2224 32.1374 28.2224 31.7922C28.2224 31.4471 27.96 31.1672 27.6364 31.1672Z" fill="#00D890"/>
<path d="M39.5896 33.7014H25.2129C24.8893 33.7014 24.627 33.9813 24.627 34.3264C24.627 34.6715 24.8893 34.9514 25.2129 34.9514H39.5896C39.9131 34.9514 40.1755 34.6715 40.1755 34.3264C40.1755 33.9813 39.9131 33.7014 39.5896 33.7014Z" fill="#9FB0FE"/>
<path d="M21.8161 34.9522H19.4404C19.1169 34.9522 18.8545 34.6723 18.8545 34.3272V31.7932C18.8545 31.4481 19.1169 31.1682 19.4404 31.1682H21.8161C22.1396 31.1682 22.402 31.4481 22.402 31.7932V34.3272C22.402 34.6723 22.1396 34.9522 21.8161 34.9522Z" fill="#02FFB3"/>
<path d="M27.6364 38.9102H25.2129C24.8893 38.9102 24.627 39.19 24.627 39.5352C24.627 39.8803 24.8893 40.1602 25.2129 40.1602H27.6364C27.96 40.1602 28.2224 39.8803 28.2224 39.5352C28.2224 39.19 27.96 38.9102 27.6364 38.9102Z" fill="#FF5BA8"/>
<path d="M39.5896 41.4441H25.2129C24.8893 41.4441 24.627 41.724 24.627 42.0691C24.627 42.4142 24.8893 42.6941 25.2129 42.6941H39.5896C39.9131 42.6941 40.1755 42.4142 40.1755 42.0691C40.1755 41.724 39.9131 41.4441 39.5896 41.4441Z" fill="#9FB0FE"/>
<path d="M21.8161 42.6942H19.4404C19.1169 42.6942 18.8545 42.4143 18.8545 42.0692V39.5352C18.8545 39.19 19.1169 38.9102 19.4404 38.9102H21.8161C22.1396 38.9102 22.402 39.19 22.402 39.5352V42.0692C22.402 42.4143 22.1396 42.6942 21.8161 42.6942Z" fill="#FF7EB8"/>
<path d="M27.6364 46.6531H25.2129C24.8893 46.6531 24.627 46.933 24.627 47.2781C24.627 47.6232 24.8893 47.9031 25.2129 47.9031H27.6364C27.96 47.9031 28.2224 47.6232 28.2224 47.2781C28.2224 46.933 27.96 46.6531 27.6364 46.6531Z" fill="#6583FE"/>
<path d="M39.5896 49.187H25.2129C24.8893 49.187 24.627 49.4669 24.627 49.812C24.627 50.1571 24.8893 50.437 25.2129 50.437H39.5896C39.9131 50.437 40.1755 50.1571 40.1755 49.812C40.1755 49.4669 39.9131 49.187 39.5896 49.187Z" fill="#9FB0FE"/>
<path d="M21.8161 50.4371H19.4404C19.1169 50.4371 18.8545 50.1572 18.8545 49.8121V47.2781C18.8545 46.933 19.1169 46.6531 19.4404 46.6531H21.8161C22.1396 46.6531 22.402 46.933 22.402 47.2781V49.8121C22.402 50.1572 22.1396 50.4371 21.8161 50.4371Z" fill="#9FB0FE"/>
</g>
<defs>
<linearGradient id="paint0_linear" x1="2.79153" y1="42.0415" x2="55.4453" y2="13.5418" gradientUnits="userSpaceOnUse">
<stop stop-color="#DCFDEE" stop-opacity="0"/>
<stop offset="0.6288" stop-color="#D2F3E4"/>
</linearGradient>
<clipPath id="clip0">
<rect width="60" height="64" fill="white"/>
</clipPath>
</defs>
</svg>
