<svg width="60" height="60" viewBox="0 0 60 60" fill="none" xmlns="http://www.w3.org/2000/svg">
<g clip-path="url(#clip0)">
<path d="M10.8398 16.2891C11.0016 16.2891 11.1328 16.1579 11.1328 15.9961C11.1328 15.8343 11.0016 15.7031 10.8398 15.7031C10.678 15.7031 10.5469 15.8343 10.5469 15.9961C10.5469 16.1579 10.678 16.2891 10.8398 16.2891Z" stroke="black" stroke-width="15" stroke-miterlimit="10" stroke-linecap="round" stroke-linejoin="round"/>
<path d="M6.73828 16.2891C6.90008 16.2891 7.03125 16.1579 7.03125 15.9961C7.03125 15.8343 6.90008 15.7031 6.73828 15.7031C6.57648 15.7031 6.44531 15.8343 6.44531 15.9961C6.44531 16.1579 6.57648 16.2891 6.73828 16.2891Z" stroke="black" stroke-width="15" stroke-miterlimit="10" stroke-linecap="round" stroke-linejoin="round"/>
<path d="M55.3125 59.1211H4.6875C3.71672 59.1211 2.92969 58.3341 2.92969 57.3633V13.8867C2.92969 12.9159 3.71672 12.1289 4.6875 12.1289H55.3125C56.2833 12.1289 57.0703 12.9159 57.0703 13.8867V57.3633C57.0703 58.3341 56.2833 59.1211 55.3125 59.1211Z" fill="#3C6BFF"/>
<path d="M57.0703 19.8633V57.3633C57.0703 58.3336 56.2828 59.1211 55.3125 59.1211H51.7969C52.7672 59.1211 53.5547 58.3336 53.5547 57.3633V19.8633H57.0703Z" fill="#2D58E0"/>
<path d="M53.2031 55.6055H6.79688C6.6027 55.6055 6.44531 55.4481 6.44531 55.2539V23.7305C6.44531 23.5363 6.6027 23.3789 6.79688 23.3789H53.2031C53.3973 23.3789 53.5547 23.5363 53.5547 23.7305V55.2539C53.5547 55.4481 53.3973 55.6055 53.2031 55.6055Z" fill="white"/>
<path d="M55.3125 12.1289H4.6875C3.71672 12.1289 2.92969 12.9159 2.92969 13.8867V19.8633H57.0703V13.8867C57.0703 12.9159 56.2833 12.1289 55.3125 12.1289Z" fill="#C3AFF0"/>
<path d="M57.0703 13.8867V19.8633H53.5547V13.8867C53.5547 12.9164 52.7672 12.1289 51.7969 12.1289H55.3125C56.2828 12.1289 57.0703 12.9164 57.0703 13.8867Z" fill="#AD96ED"/>
<path d="M49.6875 32.168H10.3125C10.1183 32.168 9.96094 32.0106 9.96094 31.8164V27.2461C9.96094 27.0519 10.1183 26.8945 10.3125 26.8945H49.6875C49.8817 26.8945 50.0391 27.0519 50.0391 27.2461V31.8164C50.0391 32.0106 49.8817 32.168 49.6875 32.168Z" fill="#CDF2F9"/>
<path d="M34.9219 52.0898H10.3125C10.1183 52.0898 9.96094 51.9325 9.96094 51.7383V36.0352C9.96094 35.841 10.1183 35.6836 10.3125 35.6836H34.9219C35.1161 35.6836 35.2734 35.841 35.2734 36.0352V51.7383C35.2734 51.9325 35.1161 52.0898 34.9219 52.0898Z" fill="#F79924"/>
<path d="M39.1406 52.0898H49.6875C49.8817 52.0898 50.0391 51.9325 50.0391 51.7383V36.0352C50.0391 35.841 49.8817 35.6836 49.6875 35.6836H39.1406C38.9464 35.6836 38.7891 35.841 38.7891 36.0352V51.7383C38.7891 51.9325 38.9464 52.0898 39.1406 52.0898Z" fill="#CDF2F9"/>
<path d="M31.4062 48.5742H13.8281C13.6339 48.5742 13.4766 48.4168 13.4766 48.2227V39.5508C13.4766 39.3566 13.6339 39.1992 13.8281 39.1992H31.4062C31.6004 39.1992 31.7578 39.3566 31.7578 39.5508V48.2227C31.7578 48.4168 31.6004 48.5742 31.4062 48.5742Z" fill="white"/>
<path d="M30 29.0039C22.2335 29.0039 15.9375 22.7079 15.9375 14.9414C15.9375 7.17492 22.2335 0.878906 30 0.878906C37.7665 0.878906 44.0625 7.17492 44.0625 14.9414C44.0625 22.7079 37.7665 29.0039 30 29.0039Z" fill="#FC8D94"/>
<path d="M44.0625 14.9414C44.0625 18.825 42.4887 22.3406 39.9434 24.8848C37.3992 27.4301 33.8836 29.0039 30 29.0039C29.4047 29.0039 28.8176 28.9664 28.2422 28.8949C31.4227 28.4988 34.2738 27.0398 36.4277 24.8848C38.973 22.3406 40.5469 18.825 40.5469 14.9414C40.5469 11.0578 38.973 7.54219 36.4277 4.99805C34.2738 2.84297 31.4227 1.38398 28.2422 0.987891C28.8176 0.916406 29.4047 0.878906 30 0.878906C33.8836 0.878906 37.3992 2.45273 39.9434 4.99805C42.4887 7.54219 44.0625 11.0578 44.0625 14.9414Z" fill="#FA6F7C"/>
<path d="M25.6055 8.66211H34.3945V17.9199H25.6055V8.66211Z" fill="#F79924"/>
<path d="M30.8789 8.6626H34.3945V17.9204H30.8789V8.6626Z" fill="#F79924"/>
<path d="M33.2227 5.14648H26.7773C26.1301 5.14648 25.6055 5.67113 25.6055 6.31836V8.66211H34.3945V6.31836C34.3945 5.67113 33.8699 5.14648 33.2227 5.14648Z" fill="white"/>
<path d="M34.3945 6.31885V8.6626H30.8789V6.31885C30.8789 5.6708 30.3539 5.14697 29.707 5.14697H33.2227C33.8695 5.14697 34.3945 5.6708 34.3945 6.31885Z" fill="#FCF1F2"/>
<path d="M25.6055 18.0957C25.6055 18.8564 25.8521 19.5965 26.3086 20.2051L29.5312 24.502C29.7656 24.8145 30.2344 24.8145 30.4688 24.502L33.6914 20.2051C34.1479 19.5965 34.3945 18.8564 34.3945 18.0957C34.3945 17.1249 33.6075 16.3379 32.6367 16.3379H27.3633C26.3925 16.3379 25.6055 17.1248 25.6055 18.0957Z" fill="#FCF1F2"/>
<path d="M34.3945 18.0962C34.3945 18.8567 34.1473 19.5962 33.6914 20.2056L30.4688 24.5017C30.2344 24.8146 29.7656 24.8146 29.5312 24.5017L28.2422 22.7837L30.1758 20.2056C30.6316 19.5962 30.8789 18.8567 30.8789 18.0962V16.3384H32.6367C33.1219 16.3384 33.5613 16.5353 33.8789 16.8528C34.1977 17.1704 34.3945 17.611 34.3945 18.0962Z" fill="#F4E5E0"/>
<path d="M32.9799 21.1535L30.4686 24.5015C30.2342 24.8144 29.7654 24.8144 29.5311 24.5015L26.9189 21.0187C28.9639 20.0437 30.9854 20.0836 32.9799 21.1535Z" fill="#6F6571"/>
<path d="M32.9801 21.1534L30.4687 24.5015C30.2344 24.8144 29.7656 24.8144 29.5312 24.5015L28.2422 22.7823L30.0867 20.3237C31.057 20.3624 32.0215 20.639 32.9801 21.1534Z" fill="#5D5360"/>
<path d="M10.8398 17.168C11.4871 17.168 12.0117 16.6433 12.0117 15.9961C12.0117 15.3489 11.4871 14.8242 10.8398 14.8242C10.1926 14.8242 9.66797 15.3489 9.66797 15.9961C9.66797 16.6433 10.1926 17.168 10.8398 17.168Z" fill="black"/>
<path d="M6.73828 17.168C7.38549 17.168 7.91016 16.6433 7.91016 15.9961C7.91016 15.3489 7.38549 14.8242 6.73828 14.8242C6.09107 14.8242 5.56641 15.3489 5.56641 15.9961C5.56641 16.6433 6.09107 17.168 6.73828 17.168Z" fill="black"/>
<path d="M55.3125 11.25H44.4796C42.832 4.79074 36.9652 0 30 0C23.0348 0 17.168 4.79074 15.5204 11.25H4.6875C3.23367 11.25 2.05078 12.4329 2.05078 13.8867V19.8633V23.3789C2.05078 23.8644 2.44418 24.2578 2.92969 24.2578C3.4152 24.2578 3.80859 23.8644 3.80859 23.3789V20.7422H16.2307C16.4876 21.3498 16.7844 21.9364 17.1163 22.5H6.79688C6.11836 22.5 5.56641 23.052 5.56641 23.7305V55.2539C5.56641 55.9324 6.11836 56.4844 6.79688 56.4844H44.1797C44.6652 56.4844 45.0586 56.091 45.0586 55.6055C45.0586 55.12 44.6652 54.7266 44.1797 54.7266H7.32422V24.2578H18.3209C18.3232 24.2578 18.3253 24.2575 18.3277 24.2575C18.831 24.8868 19.3835 25.4752 19.9804 26.0156H10.3125C9.63398 26.0156 9.08203 26.5676 9.08203 27.2461V31.8164C9.08203 32.4949 9.63398 33.0469 10.3125 33.0469H49.6875C50.366 33.0469 50.918 32.4949 50.918 31.8164V27.2461C50.918 26.5676 50.366 26.0156 49.6875 26.0156H40.0196C40.6164 25.4753 41.1688 24.887 41.672 24.2578H52.6758V54.7266H48.2812C47.7957 54.7266 47.4023 55.12 47.4023 55.6055C47.4023 56.091 47.7957 56.4844 48.2812 56.4844H53.2031C53.8816 56.4844 54.4336 55.9324 54.4336 55.2539V23.7305C54.4336 23.052 53.8816 22.5 53.2031 22.5H42.8836C43.2156 21.9364 43.5123 21.3498 43.7692 20.7422H56.1914V57.3633C56.1914 57.848 55.7972 58.2422 55.3125 58.2422H4.6875C4.20281 58.2422 3.80859 57.848 3.80859 57.3633V27.4805C3.80859 26.995 3.4152 26.6016 2.92969 26.6016C2.44418 26.6016 2.05078 26.995 2.05078 27.4805V57.3633C2.05078 58.8171 3.23367 60 4.6875 60H55.3125C56.7663 60 57.9492 58.8171 57.9492 57.3633V19.8633V13.8867C57.9492 12.4329 56.7663 11.25 55.3125 11.25ZM3.80859 18.9844V13.8867C3.80859 13.402 4.20281 13.0078 4.6875 13.0078H15.1835C15.1014 13.641 15.0586 14.2862 15.0586 14.9414C15.0586 16.342 15.2528 17.698 15.6148 18.9844H3.80859ZM49.1602 27.7734V31.2891H10.8398V27.7734H22.3542C24.5925 29.1121 27.2078 29.8828 30 29.8828C32.7922 29.8828 35.4076 29.1121 37.6458 27.7734H49.1602ZM30 28.125C22.7306 28.125 16.8164 22.2108 16.8164 14.9414C16.8164 7.67203 22.7306 1.75781 30 1.75781C37.2694 1.75781 43.1836 7.67203 43.1836 14.9414C43.1836 22.2108 37.2694 28.125 30 28.125ZM44.8165 13.0078H55.3125C55.7972 13.0078 56.1914 13.402 56.1914 13.8867V18.9844H44.3852C44.7472 17.698 44.9414 16.342 44.9414 14.9414C44.9414 14.2862 44.8986 13.641 44.8165 13.0078Z" fill="black"/>
<path d="M10.3125 34.8047C9.63398 34.8047 9.08203 35.3566 9.08203 36.0352V51.7383C9.08203 52.4168 9.63398 52.9688 10.3125 52.9688H34.9219C35.6004 52.9688 36.1523 52.4168 36.1523 51.7383V36.0352C36.1523 35.3566 35.6004 34.8047 34.9219 34.8047H10.3125ZM34.3945 51.2109H10.8398V36.5625H34.3945V51.2109Z" fill="black"/>
<path d="M50.918 51.7383V36.0352C50.918 35.3566 50.366 34.8047 49.6875 34.8047H39.1406C38.4621 34.8047 37.9102 35.3566 37.9102 36.0352V51.7383C37.9102 52.4168 38.4621 52.9688 39.1406 52.9688H49.6875C50.366 52.9688 50.918 52.4168 50.918 51.7383ZM49.1602 51.2109H39.668V36.5625H49.1602V51.2109Z" fill="black"/>
<path d="M13.8281 49.4531H31.4062C32.0848 49.4531 32.6367 48.9012 32.6367 48.2227V39.5508C32.6367 38.8723 32.0848 38.3203 31.4062 38.3203H13.8281C13.1496 38.3203 12.5977 38.8723 12.5977 39.5508V48.2227C12.5977 48.9012 13.1496 49.4531 13.8281 49.4531ZM14.3555 40.0781H30.8789V47.6953H14.3555V40.0781Z" fill="black"/>
<path d="M42.3047 48.2812H46.5234C47.0089 48.2812 47.4023 47.8879 47.4023 47.4023C47.4023 46.9168 47.0089 46.5234 46.5234 46.5234H42.3047C41.8192 46.5234 41.4258 46.9168 41.4258 47.4023C41.4258 47.8879 41.8192 48.2812 42.3047 48.2812Z" fill="black"/>
<path d="M42.3047 44.7656H46.5234C47.0089 44.7656 47.4023 44.3722 47.4023 43.8867C47.4023 43.4012 47.0089 43.0078 46.5234 43.0078H42.3047C41.8192 43.0078 41.4258 43.4012 41.4258 43.8867C41.4258 44.3722 41.8192 44.7656 42.3047 44.7656Z" fill="black"/>
<path d="M42.3047 41.25H46.5234C47.0089 41.25 47.4023 40.8566 47.4023 40.3711C47.4023 39.8856 47.0089 39.4922 46.5234 39.4922H42.3047C41.8192 39.4922 41.4258 39.8856 41.4258 40.3711C41.4258 40.8566 41.8192 41.25 42.3047 41.25Z" fill="black"/>
<path d="M33.2227 4.26758H26.7773C25.6466 4.26758 24.7266 5.18762 24.7266 6.31836V8.66211V18.0957C24.7266 19.0402 25.0386 19.9767 25.6055 20.7324L28.8281 25.0292C29.1074 25.4016 29.5345 25.6152 30 25.6152C30.4655 25.6152 30.8926 25.4016 31.1719 25.0292L34.3945 20.7324C34.9614 19.9767 35.2734 19.0402 35.2734 18.0957C35.2734 18.0372 35.2734 8.66211 35.2734 8.66211V6.31836C35.2734 5.18762 34.3534 4.26758 33.2227 4.26758ZM27.0117 19.6777C26.6718 19.2243 26.4844 18.6624 26.4844 18.0957C26.4844 17.611 26.8786 17.2168 27.3633 17.2168H32.6367C33.1214 17.2168 33.5156 17.611 33.5156 18.0957C33.5156 18.6624 33.3282 19.2243 32.9883 19.6777L32.71 20.0489C30.9046 19.274 29.0575 19.2386 27.2093 19.9413L27.0117 19.6777ZM33.4939 15.459H26.4844V9.54102H33.5156V15.4586C33.5084 15.4586 33.5013 15.459 33.4939 15.459ZM26.4844 6.31836C26.4844 6.15676 26.6157 6.02539 26.7773 6.02539H33.2227C33.3843 6.02539 33.5156 6.15676 33.5156 6.31836V7.7832H26.4844V6.31836ZM30 23.662L28.3191 21.4209C29.4333 21.0963 30.5221 21.1255 31.615 21.5088L30 23.662Z" fill="black"/>
</g>
<defs>
<clipPath id="clip0">
<rect width="60" height="60" fill="white"/>
</clipPath>
</defs>
</svg>
