<svg width="60" height="60" viewBox="0 0 60 60" fill="none" xmlns="http://www.w3.org/2000/svg">
<path d="M7.96875 46.568V9.54024C7.97444 8.7396 8.28807 7.97188 8.8446 7.39627C9.40113 6.82067 10.1579 6.48136 10.9579 6.44871L7.575 6.44532C6.7513 6.44406 5.96059 6.76887 5.37563 7.34878C4.79066 7.92869 4.45901 8.71656 4.45312 9.54024V46.568C4.45811 47.3942 4.7887 48.1851 5.37315 48.7691C5.95761 49.3531 6.74878 49.6831 7.575 49.6875H11.0906C10.2644 49.6831 9.47323 49.3531 8.88878 48.7691C8.30432 48.1851 7.97374 47.3942 7.96875 46.568Z" fill="#D4E1F4"/>
<path d="M42.5023 6.18626L36.6277 1.0613C36.4117 0.872885 36.1565 0.734971 35.8806 0.657588C35.711 0.610004 35.5357 0.585873 35.3596 0.585869H13.7645C13.0603 0.579016 12.3686 0.772471 11.7702 1.14368C11.2179 1.48501 10.7619 1.96164 10.4453 2.52845C10.1287 3.09526 9.96196 3.7335 9.96094 4.38274V5.74212H7.57406C6.56076 5.74506 5.5898 6.14889 4.87329 6.86541C4.15677 7.58192 3.75294 8.55288 3.75 9.56618V46.5668C3.75297 47.58 4.15677 48.5509 4.87322 49.2673C5.58966 49.9838 6.56051 50.3876 7.57371 50.3906H31.7578V48.9843H7.57395C6.93331 48.9824 6.31946 48.7271 5.86646 48.2741C5.41346 47.8211 5.15814 47.2072 5.15625 46.5666V9.5663C5.15625 8.92502 5.411 8.31001 5.86445 7.85656C6.31789 7.40311 6.93291 7.14837 7.57418 7.14837H28.9453V12.2389C28.9453 12.4117 29.014 12.5775 29.1362 12.6997C29.2584 12.8219 29.4242 12.8906 29.597 12.8906H35.5078V20.5954C35.5049 20.7818 35.5742 20.9622 35.7012 21.0987C35.8282 21.2353 36.0031 21.3174 36.1893 21.3281C36.2834 21.331 36.3772 21.3149 36.465 21.2809C36.5528 21.2469 36.6329 21.1955 36.7005 21.1299C36.7681 21.0644 36.8219 20.9859 36.8585 20.8991C36.8952 20.8124 36.9141 20.7191 36.9141 20.6249V12.7002C36.9141 12.5157 36.8858 12.3323 36.8304 12.1563C36.7304 11.8391 36.5448 11.5556 36.2941 11.337L30.4286 6.22259C30.2094 6.0315 29.9503 5.89187 29.6702 5.81396C29.5003 5.76644 29.3246 5.74227 29.1482 5.74212H11.3672V4.44497C11.3608 3.8997 11.5346 3.36759 11.8617 2.93126C12.0852 2.63846 12.3734 2.40133 12.7038 2.2384C13.0341 2.07548 13.3977 1.99119 13.766 1.99212H35.0391V7.08204C35.0391 7.25503 35.1078 7.42094 35.2301 7.54326C35.3524 7.66559 35.5183 7.73431 35.6913 7.73431H41.7188V31.289H43.125V7.55595C43.125 7.36356 43.0944 7.1724 43.0345 6.98958C42.9326 6.67881 42.7487 6.40129 42.5023 6.18626ZM30.3516 7.99423L34.3615 11.4843H30.3516V7.99423ZM36.4453 6.32806V2.83657L40.5608 6.32806H36.4453Z" fill="#3C6BFF"/>
<path d="M15.4687 32.0351C15.4687 31.8486 15.3946 31.6698 15.2628 31.5379C15.1309 31.406 14.9521 31.332 14.7656 31.332C14.5791 31.332 14.4003 31.406 14.2684 31.5379C14.1365 31.6698 14.0625 31.8486 14.0625 32.0351V32.3437H9.1406V27.4219H13.6469C13.8334 27.4219 14.0122 27.3478 14.1441 27.2159C14.276 27.0841 14.35 26.9052 14.35 26.7187C14.35 26.5323 14.276 26.3534 14.1441 26.2216C14.0122 26.0897 13.8334 26.0156 13.6469 26.0156H8.38825C8.00001 26.0156 7.73435 26.3248 7.73435 26.7131V33.0839C7.72953 33.1716 7.74306 33.2593 7.77405 33.3415C7.80505 33.4237 7.85283 33.4985 7.91436 33.5612C7.97589 33.6239 8.04982 33.673 8.13141 33.7055C8.21301 33.7381 8.30048 33.7532 8.38825 33.75H14.759C14.8497 33.7542 14.9403 33.7402 15.0254 33.7088C15.1106 33.6774 15.1886 33.6292 15.2548 33.5671C15.3209 33.5049 15.374 33.4302 15.4107 33.3472C15.4475 33.2642 15.4672 33.1747 15.4687 33.0839V32.0351Z" fill="#3C6BFF"/>
<path d="M15.8503 27.883C15.7305 27.7401 15.5588 27.6507 15.3731 27.6343C15.1873 27.618 15.0027 27.676 14.8598 27.7958L12.5726 29.7134L11.8359 28.9771C11.7709 28.9103 11.6934 28.8572 11.6077 28.8206C11.522 28.7841 11.4299 28.765 11.3368 28.7644C11.2436 28.7638 11.1513 28.7816 11.0651 28.817C10.979 28.8524 10.9007 28.9045 10.8348 28.9703C10.769 29.0362 10.7168 29.1145 10.6815 29.2007C10.6462 29.2868 10.6283 29.3792 10.6289 29.4723C10.6296 29.5654 10.6487 29.6575 10.6852 29.7432C10.7217 29.8289 10.7749 29.9064 10.8417 29.9714L12.0334 31.1631C12.1577 31.2875 12.3241 31.3608 12.4999 31.3685C12.6756 31.3762 12.8478 31.3177 12.9826 31.2047L15.7632 28.8736C15.834 28.8143 15.8923 28.7416 15.935 28.6597C15.9777 28.5778 16.0038 28.4883 16.0119 28.3963C16.02 28.3043 16.0099 28.2117 15.9821 28.1236C15.9544 28.0355 15.9096 27.9538 15.8503 27.883Z" fill="#3C6BFF"/>
<path d="M18.4648 29.1797H27.2943C27.4808 29.1797 27.6597 29.1056 27.7915 28.9737C27.9234 28.8419 27.9975 28.663 27.9975 28.4766C27.9975 28.2901 27.9234 28.1112 27.7915 27.9794C27.6597 27.8475 27.4808 27.7734 27.2943 27.7734H18.4648C18.2784 27.7734 18.0995 27.8475 17.9677 27.9794C17.8358 28.1112 17.7617 28.2901 17.7617 28.4766C17.7617 28.663 17.8358 28.8419 17.9677 28.9737C18.0995 29.1056 18.2784 29.1797 18.4648 29.1797Z" fill="#3C6BFF"/>
<path d="M31.8535 30.5859H18.4648C18.2784 30.5859 18.0995 30.66 17.9677 30.7919C17.8358 30.9237 17.7617 31.1026 17.7617 31.2891C17.7617 31.4755 17.8358 31.6544 17.9677 31.7862C18.0995 31.9181 18.2784 31.9922 18.4648 31.9922H31.8535C32.04 31.9922 32.2189 31.9181 32.3507 31.7862C32.4826 31.6544 32.5567 31.4755 32.5567 31.2891C32.5567 31.1026 32.4826 30.9237 32.3507 30.7919C32.2189 30.66 32.04 30.5859 31.8535 30.5859Z" fill="#3C6BFF"/>
<path d="M15.4688 37.9688C15.4688 37.7823 15.3947 37.6034 15.2628 37.4716C15.1309 37.3397 14.9521 37.2656 14.7656 37.2656H8.4375C8.25102 37.2656 8.07218 37.3397 7.94032 37.4716C7.80845 37.6034 7.73438 37.7823 7.73438 37.9688V44.2969C7.73438 44.4834 7.80845 44.6622 7.94032 44.7941C8.07218 44.9259 8.25102 45 8.4375 45H14.7656C14.9521 45 15.1309 44.9259 15.2628 44.7941C15.3947 44.6622 15.4688 44.4834 15.4688 44.2969V37.9688ZM9.14062 38.6719H14.0625V43.7109H9.14062V38.6719Z" fill="#3C6BFF"/>
<path d="M18.4648 40.4297H26.9579C27.1444 40.4297 27.3232 40.3556 27.4551 40.2237C27.5869 40.0919 27.661 39.913 27.661 39.7266C27.661 39.5401 27.5869 39.3612 27.4551 39.2294C27.3232 39.0975 27.1444 39.0234 26.9579 39.0234H18.4648C18.2784 39.0234 18.0995 39.0975 17.9677 39.2294C17.8358 39.3612 17.7617 39.5401 17.7617 39.7266C17.7617 39.913 17.8358 40.0919 17.9677 40.2237C18.0995 40.3556 18.2784 40.4297 18.4648 40.4297Z" fill="#3C6BFF"/>
<path d="M18.4651 43.3594H27.0477C27.2341 43.3594 27.413 43.2853 27.5448 43.1534C27.6767 43.0216 27.7508 42.8427 27.7508 42.6562C27.7508 42.4698 27.6767 42.2909 27.5448 42.1591C27.413 42.0272 27.2341 41.9531 27.0477 41.9531H18.4648C18.2784 41.9531 18.0995 42.0272 17.9677 42.1591C17.8358 42.2909 17.7617 42.4698 17.7617 42.6562C17.7617 42.8427 17.8358 43.0216 17.9677 43.1534C18.0995 43.2853 18.2784 43.3594 18.4648 43.3594H18.4651Z" fill="#3C6BFF"/>
<path d="M13.6469 16.2891C13.8334 16.2891 14.0122 16.215 14.1441 16.0832C14.276 15.9513 14.35 15.7725 14.35 15.586C14.35 15.3995 14.276 15.2206 14.1441 15.0888C14.0122 14.9569 13.8334 14.8828 13.6469 14.8828H8.38823C8.30064 14.8793 8.21327 14.894 8.13172 14.9262C8.05018 14.9584 7.97625 15.0072 7.91468 15.0696C7.85312 15.132 7.80527 15.2066 7.77421 15.2886C7.74315 15.3706 7.72957 15.4581 7.73433 15.5457V21.9164C7.73433 22.3047 7.99999 22.6172 8.38823 22.6172H14.759C14.9459 22.618 15.1256 22.5447 15.2586 22.4134C15.3916 22.282 15.4671 22.1034 15.4687 21.9164V20.8677C15.4687 20.6813 15.3946 20.5024 15.2628 20.3706C15.1309 20.2387 14.9521 20.1646 14.7656 20.1646C14.5791 20.1646 14.4003 20.2387 14.2684 20.3706C14.1365 20.5024 14.0625 20.6813 14.0625 20.8677V21.211H9.14058V16.2891H13.6469Z" fill="#3C6BFF"/>
<path d="M15.8503 16.7155C15.7305 16.5726 15.5588 16.4831 15.3731 16.4668C15.1873 16.4505 15.0027 16.5086 14.8598 16.6284L12.5726 18.5458L11.8359 17.8095C11.7709 17.7428 11.6933 17.6896 11.6077 17.6531C11.522 17.6166 11.4299 17.5975 11.3368 17.5968C11.2436 17.5962 11.1513 17.6141 11.0651 17.6494C10.979 17.6848 10.9007 17.7369 10.8348 17.8028C10.769 17.8687 10.7168 17.9469 10.6815 18.0331C10.6462 18.1193 10.6283 18.2116 10.6289 18.3048C10.6296 18.3979 10.6487 18.49 10.6852 18.5757C10.7217 18.6613 10.7749 18.7389 10.8417 18.8039L12.0333 19.9955C12.1577 20.1199 12.3241 20.1932 12.4999 20.2009C12.6756 20.2086 12.8478 20.1502 12.9826 20.0371L15.7632 17.7059C15.9061 17.5861 15.9955 17.4145 16.0118 17.2287C16.0282 17.043 15.97 16.8584 15.8503 16.7155Z" fill="#3C6BFF"/>
<path d="M17.7617 17.3438C17.7617 17.5302 17.8358 17.7091 17.9677 17.8409C18.0995 17.9728 18.2784 18.0469 18.4648 18.0469H27.2943C27.4808 18.0469 27.6597 17.9728 27.7915 17.8409C27.9234 17.7091 27.9975 17.5302 27.9975 17.3438C27.9975 17.1573 27.9234 16.9784 27.7915 16.8466C27.6597 16.7147 27.4808 16.6406 27.2943 16.6406H18.4648C18.2784 16.6406 18.0995 16.7147 17.9677 16.8466C17.8358 16.9784 17.7617 17.1573 17.7617 17.3438Z" fill="#3C6BFF"/>
<path d="M31.8535 19.4531H18.4648C18.2784 19.4531 18.0995 19.5272 17.9677 19.6591C17.8358 19.7909 17.7617 19.9698 17.7617 20.1562C17.7617 20.3427 17.8358 20.5216 17.9677 20.6534C18.0995 20.7853 18.2784 20.8594 18.4648 20.8594H31.8535C32.04 20.8594 32.2189 20.7853 32.3507 20.6534C32.4826 20.5216 32.5567 20.3427 32.5567 20.1562C32.5567 19.9698 32.4826 19.7909 32.3507 19.6591C32.2189 19.5272 32.04 19.4531 31.8535 19.4531Z" fill="#3C6BFF"/>
<path d="M7.61719 9.14062H7.38281C7.19633 9.14062 7.01749 9.2147 6.88563 9.34657C6.75377 9.47843 6.67969 9.65727 6.67969 9.84375C6.67969 10.0302 6.75377 10.2091 6.88563 10.3409C7.01749 10.4728 7.19633 10.5469 7.38281 10.5469H7.61719C7.80367 10.5469 7.98251 10.4728 8.11437 10.3409C8.24623 10.2091 8.32031 10.0302 8.32031 9.84375C8.32031 9.65727 8.24623 9.47843 8.11437 9.34657C7.98251 9.2147 7.80367 9.14062 7.61719 9.14062Z" fill="#3C6BFF"/>
<path d="M21.4453 9.84375C21.4453 9.65727 21.3712 9.47843 21.2394 9.34657C21.1075 9.2147 20.9287 9.14062 20.7422 9.14062H9.96094C9.77446 9.14062 9.59561 9.2147 9.46375 9.34657C9.33189 9.47843 9.25781 9.65727 9.25781 9.84375C9.25781 10.0302 9.33189 10.2091 9.46375 10.3409C9.59561 10.4728 9.77446 10.5469 9.96094 10.5469H20.7422C20.9287 10.5469 21.1075 10.4728 21.2394 10.3409C21.3712 10.2091 21.4453 10.0302 21.4453 9.84375Z" fill="#3C6BFF"/>
<path d="M36.2109 24.8438C36.0245 24.8438 35.8456 24.9178 35.7138 25.0497C35.5819 25.1816 35.5078 25.3604 35.5078 25.5469V30.2344H36.9141V25.5469C36.9141 25.3604 36.84 25.1816 36.7081 25.0497C36.5763 24.9178 36.3974 24.8438 36.2109 24.8438Z" fill="#3C6BFF"/>
<path d="M55.3521 54.3358L48.3684 47.3514C48.2366 47.2196 48.0578 47.1456 47.8713 47.1456C47.6849 47.1456 47.5061 47.2196 47.3742 47.3514L46.9196 47.806L46.6589 47.5453C48.2781 45.3683 49.0612 42.682 48.8655 39.976C48.6697 37.2699 47.5082 34.7243 45.5925 32.8031C43.4738 30.6839 40.6001 29.4931 37.6034 29.4927C34.6068 29.4923 31.7327 30.6823 29.6135 32.801C28.0342 34.3859 26.9589 36.4025 26.523 38.5971C26.0871 40.7917 26.31 43.0662 27.1638 45.1344C28.0175 47.2026 29.4639 48.972 31.3209 50.2201C33.1779 51.4682 35.3626 52.1391 37.6001 52.1485H37.6018C40.04 52.1449 42.4109 51.3488 44.3571 49.8801L44.616 50.1247L44.1615 50.572C44.0962 50.6367 44.0444 50.7138 44.0091 50.7986C43.9737 50.8835 43.9555 50.9745 43.9555 51.0665C43.9555 51.1584 43.9737 51.2494 44.0091 51.3343C44.0444 51.4192 44.0962 51.4962 44.1615 51.5609L51.1452 58.5438C51.7035 59.1001 52.4598 59.4121 53.248 59.4113C54.0361 59.4105 54.7918 59.0971 55.349 58.5397C55.9063 57.9823 56.2196 57.2266 56.2202 56.4384C56.2208 55.6502 55.9086 54.894 55.3522 54.3358H55.3521ZM37.6017 50.7423H37.6003C35.641 50.735 33.7277 50.1481 32.1012 49.0556C30.4748 47.963 29.208 46.4137 28.4604 44.6026C27.7127 42.7915 27.5177 40.7998 27.8998 38.8781C28.2819 36.9564 29.224 35.1907 30.6076 33.8034C32.1131 32.3035 34.0589 31.3243 36.1605 31.0089C36.6326 30.9391 37.1091 30.9039 37.5862 30.9035C40.2172 30.9014 42.7411 31.9446 44.6029 33.8035C46.4647 35.6624 47.5118 38.1847 47.5139 40.8157C47.5159 43.4466 46.4728 45.9706 44.6139 47.8324C42.755 49.6942 40.2326 50.7413 37.6017 50.7433V50.7423ZM45.4316 48.9376C45.4848 48.8865 45.5378 48.8354 45.59 48.7831C45.6423 48.7309 45.6928 48.6744 45.7447 48.6203L45.9253 48.801L45.6102 49.1162L45.4316 48.9376ZM47.8713 48.8438L48.4831 49.4558L46.2649 51.6739L45.653 51.0619L47.8713 48.8438ZM54.3578 57.5487C54.0634 57.8425 53.6645 58.0074 53.2486 58.0074C52.8328 58.0074 52.4339 57.8425 52.1395 57.5487L47.2594 52.6686L49.4777 50.4502L54.3578 55.3304C54.5034 55.476 54.619 55.6489 54.6978 55.8393C54.7767 56.0296 54.8173 56.2336 54.8173 56.4396C54.8173 56.6456 54.7767 56.8495 54.6978 57.0399C54.619 57.2302 54.5034 57.4031 54.3578 57.5487Z" fill="#F79924"/>
<path d="M44.0088 34.388C42.3103 32.689 40.0064 31.7343 37.604 31.7339C35.2015 31.7335 32.8973 32.6875 31.1982 34.386C29.9312 35.6526 29.0681 37.2666 28.7183 39.0237C28.3685 40.7809 28.5476 42.6023 29.2329 44.2577C29.9183 45.9131 31.0791 47.328 32.5687 48.3236C34.0582 49.3192 35.8095 49.8508 37.6011 49.8511C39.3928 49.8514 41.1442 49.3203 42.6341 48.3252C44.1239 47.33 45.2852 45.9154 45.9711 44.2603C46.657 42.6051 46.8366 40.7838 46.4873 39.0265C46.1381 37.2693 45.2755 35.655 44.0088 34.388ZM43.0127 46.2041C42.1563 47.0604 41.1088 47.7012 39.9564 48.0737C38.804 48.4463 37.5797 48.54 36.384 48.3472C35.1883 48.1544 34.0555 47.6805 33.0787 46.9646C32.1018 46.2486 31.3089 45.3111 30.765 44.2289C30.2211 43.1468 29.9419 41.9511 29.9502 40.74C29.9585 39.5289 30.2541 38.3371 30.8128 37.2625C31.3715 36.188 32.1772 35.2614 33.1638 34.5589C34.1503 33.8564 35.2895 33.3981 36.4877 33.2217C36.8529 33.168 37.2215 33.141 37.5906 33.1411C39.1052 33.1384 40.5865 33.5854 41.8469 34.4253C43.1073 35.2652 44.0901 36.4602 44.6707 37.8591C45.2513 39.258 45.4037 40.7978 45.1086 42.2833C44.8134 43.7689 44.0839 45.1335 43.0126 46.2041H43.0127Z" fill="#F79924"/>
<path d="M44.4766 40.555C44.3528 40.3853 41.3989 36.3999 37.6024 36.3999C33.8059 36.3999 30.8524 40.3853 30.7281 40.555C30.6402 40.6754 30.5928 40.8206 30.5928 40.9697C30.5928 41.1188 30.6402 41.264 30.7281 41.3844C30.8521 41.5539 33.8059 45.5396 37.6024 45.5396C41.3989 45.5396 44.3524 41.5539 44.4766 41.3844C44.5645 41.264 44.6119 41.1188 44.6119 40.9697C44.6119 40.8206 44.5645 40.6754 44.4766 40.555ZM37.6024 43.7261C37.0572 43.726 36.5244 43.5643 36.0711 43.2613C35.6179 42.9584 35.2646 42.5279 35.0561 42.0242C34.8475 41.5205 34.793 40.9663 34.8994 40.4316C35.0058 39.8969 35.2684 39.4058 35.6539 39.0203C36.0394 38.6349 36.5306 38.3724 37.0653 38.2661C37.6 38.1598 38.1542 38.2144 38.6578 38.423C39.1615 38.6317 39.592 38.985 39.8948 39.4383C40.1977 39.8916 40.3594 40.4245 40.3594 40.9696C40.3585 41.7005 40.0678 42.4013 39.5509 42.918C39.0341 43.4348 38.3333 43.7254 37.6024 43.7261ZM32.2001 40.9696C32.6633 40.4288 33.1716 39.9282 33.7194 39.4733C33.347 40.4361 33.347 41.5033 33.7194 42.4661C33.1714 42.0112 32.663 41.5106 32.1997 40.9696H32.2001ZM41.4861 42.4661C41.8586 41.5033 41.8586 40.4362 41.4861 39.4734C42.0339 39.9283 42.5421 40.4288 43.0053 40.9696C42.542 41.5105 42.0337 42.0112 41.4858 42.4661H41.4861Z" fill="#F79924"/>
</svg>
